<svg id="visual" viewBox="0 0 960 540" width="960" height="540" xmlns="http://www.w3.org/2000/svg" xmlns:xlink="http://www.w3.org/1999/xlink" version="1.1"><path d="M0 415L22.8 402.8C45.7 390.7 91.3 366.3 137 364.7C182.7 363 228.3 384 274 402.7C319.7 421.3 365.3 437.7 411.2 426.5C457 415.3 503 376.7 548.8 363C594.7 349.3 640.3 360.7 686 377.2C731.7 393.7 777.3 415.3 823 410.3C868.7 405.3 914.3 373.7 937.2 357.8L960 342L960 541L937.2 541C914.3 541 868.7 541 823 541C777.3 541 731.7 541 686 541C640.3 541 594.7 541 548.8 541C503 541 457 541 411.2 541C365.3 541 319.7 541 274 541C228.3 541 182.7 541 137 541C91.3 541 45.7 541 22.8 541L0 541Z" fill="#0066FF" stroke-linecap="round" stroke-linejoin="miter"></path></svg>