<svg xmlns="http://www.w3.org/2000/svg" version="1.1" xmlns:xlink="http://www.w3.org/1999/xlink" xmlns:svgjs="http://svgjs.dev/svgjs" width="1440" height="560" preserveAspectRatio="none" viewBox="0 0 1440 560"><g mask="url(&quot;#SvgjsMask1017&quot;)" fill="none"><path d="M1421.985290545064 246.0079004881317L1353.4784555824083 192.48449501434092 1307.44676485305 322.00645019521994z" fill="rgba(28, 83, 142, 0.4)" class="triangle-float1"></path><path d="M1163.2875417362557 197.20936303600186L1074.725541138727 285.7713636335304 1163.2875417362557 374.3333642310589 1251.8495423337843 285.7713636335304z" fill="rgba(28, 83, 142, 0.4)" class="triangle-float2"></path><path d="M367.937,519.126C402.845,521.867,439.352,508.725,457.164,478.579C475.23,448.003,470.243,408.916,450.494,379.399C432.742,352.867,399.844,346.218,367.937,345.221C333.52,344.146,292.777,343.913,275.935,373.947C259.265,403.676,281.83,437.454,300.074,466.244C316.527,492.207,337.294,516.72,367.937,519.126" fill="rgba(28, 83, 142, 0.4)" class="triangle-float2"></path><path d="M1391.9766561402362 305.6889457035939L1318.9316967494658 399.1822302496936 1485.4699406863358 378.73390509436416z" fill="rgba(28, 83, 142, 0.4)" class="triangle-float1"></path><path d="M661.2924333095906 379.7559564224645L684.3967291736641 479.83165655002205 822.9581314329637 395.137362690133z" fill="rgba(28, 83, 142, 0.4)" class="triangle-float3"></path><path d="M1365.3329267034633 268.9087655102011L1244.9492412979587 359.44463233056297 1365.238590880006 413.00090130159685z" fill="rgba(28, 83, 142, 0.4)" class="triangle-float1"></path><path d="M274.70893007004713 269.5509435197062L286.3409751234158 435.8969377109693 441.05492426131025 257.91889846633757z" fill="rgba(28, 83, 142, 0.4)" class="triangle-float1"></path><path d="M1197.026484884798 247.5105343949478L1108.6763593106791 156.02130113574412 1105.5372516255943 335.8606599690668z" fill="rgba(28, 83, 142, 0.4)" class="triangle-float1"></path><path d="M1426.759,446.538C1480.369,445.332,1526.193,414.185,1555.406,369.217C1588.06,318.952,1616.083,254.808,1584.35,203.957C1553.556,154.61,1484.886,160.908,1426.759,163.06C1373.926,165.016,1317.145,170.706,1288.162,214.923C1256.763,262.825,1258.269,326.091,1287.679,375.24C1316.35,423.154,1370.936,447.794,1426.759,446.538" fill="rgba(28, 83, 142, 0.4)" class="triangle-float2"></path><path d="M435.889,214.647C484.28,215.661,525.888,179.888,546.159,135.935C563.694,97.916,547.496,56.154,525.384,20.601C504.845,-12.422,474.644,-38.135,435.889,-41.363C390.425,-45.15,339.493,-36.058,316.215,3.177C292.619,42.947,310.568,91.231,333.344,131.476C356.577,172.529,388.728,213.659,435.889,214.647" fill="rgba(28, 83, 142, 0.4)" class="triangle-float3"></path></g><defs><mask id="SvgjsMask1017"><rect width="1440" height="560" fill="#ffffff"></rect></mask><style>
                @keyframes float1 {
                    0%{transform: translate(0, 0)}
                    50%{transform: translate(-10px, 0)}
                    100%{transform: translate(0, 0)}
                }

                .triangle-float1 {
                    animation: float1 5s infinite;
                }

                @keyframes float2 {
                    0%{transform: translate(0, 0)}
                    50%{transform: translate(-5px, -5px)}
                    100%{transform: translate(0, 0)}
                }

                .triangle-float2 {
                    animation: float2 4s infinite;
                }

                @keyframes float3 {
                    0%{transform: translate(0, 0)}
                    50%{transform: translate(0, -10px)}
                    100%{transform: translate(0, 0)}
                }

                .triangle-float3 {
                    animation: float3 6s infinite;
                }
            </style></defs></svg>