<svg id="visual" viewBox="0 0 960 540" width="960" height="540" xmlns="http://www.w3.org/2000/svg" xmlns:xlink="http://www.w3.org/1999/xlink" version="1.1"><path d="M0 299L22.8 296C45.7 293 91.3 287 137 260.7C182.7 234.3 228.3 187.7 274 187C319.7 186.3 365.3 231.7 411.2 235.3C457 239 503 201 548.8 181.7C594.7 162.3 640.3 161.7 686 190.8C731.7 220 777.3 279 823 274.8C868.7 270.7 914.3 203.3 937.2 169.7L960 136L960 541L937.2 541C914.3 541 868.7 541 823 541C777.3 541 731.7 541 686 541C640.3 541 594.7 541 548.8 541C503 541 457 541 411.2 541C365.3 541 319.7 541 274 541C228.3 541 182.7 541 137 541C91.3 541 45.7 541 22.8 541L0 541Z" fill="#0066FF" stroke-linecap="round" stroke-linejoin="miter"></path></svg>