<svg id="visual" viewBox="0 0 960 540" width="960" height="540" xmlns="http://www.w3.org/2000/svg" xmlns:xlink="http://www.w3.org/1999/xlink" version="1.1"><path d="M0 247L22.8 271.3C45.7 295.7 91.3 344.3 137 347.5C182.7 350.7 228.3 308.3 274 271C319.7 233.7 365.3 201.3 411.2 223.7C457 246 503 323 548.8 350.3C594.7 377.7 640.3 355.3 686 322.7C731.7 290 777.3 247 823 257.2C868.7 267.3 914.3 330.7 937.2 362.3L960 394L960 0L937.2 0C914.3 0 868.7 0 823 0C777.3 0 731.7 0 686 0C640.3 0 594.7 0 548.8 0C503 0 457 0 411.2 0C365.3 0 319.7 0 274 0C228.3 0 182.7 0 137 0C91.3 0 45.7 0 22.8 0L0 0Z" fill="#0066FF" stroke-linecap="round" stroke-linejoin="miter"></path></svg>